# xmcd CD database file generated by Grip 2.95
# 
# Track frame offsets:
#       150
#       21914
#       51274
#       68559
#       87094
#       121904
#       140563
#       156992
#       161386
#       172225
#       176977
#       190707
#       195629
#       207607
#       230343
#       246581
#       252766
#       271077
#       277032
#       289607
#       294311
#       322362
#       325977
# 
# Disc length: 4604 seconds
# 
# Revision: 4
# Processed by: cddbd v1.5PL3 Copyright (c) Steve Scherf et al.
# Submitted via: Grip 2.95
# 
DISCID=6611fa17
DTITLE=Wayne Hancock - Memphis 2003-06-13 Disc 1
DYEAR=2003
DGENRE=country
TTITLE0=Walkin' the Dog
TTITLE1=Johnson City
TTITLE2=Pretty Little Gal
TTITLE3=Railroad Blues
TTITLE4=Milk Cow Blues
TTITLE5=87 Southbound
TTITLE6=Louisiana Blues
TTITLE7="tuning/talk"
TTITLE8=Poor Boy Blues
TTITLE9="tuning/talk"
TTITLE10=Do Re Mi
TTITLE11="tuning/talk"
TTITLE12=Miller, Jack, and Mad Dog
TTITLE13=Wino Boogie
TTITLE14=Double A Daddy
TTITLE15="tuning/talk"
TTITLE16=California Blues
TTITLE17="tuning/talk"
TTITLE18=Flatland Boogie
TTITLE19="tuning/talk"
TTITLE20=Draggin' Me Down
TTITLE21="tuning/talk"
TTITLE22=We Three
EXTD=
EXTT0=
EXTT1=
EXTT2=
EXTT3=
EXTT4=
EXTT5=
EXTT6=
EXTT7=
EXTT8=
EXTT9=
EXTT10=
EXTT11=
EXTT12=
EXTT13=
EXTT14=
EXTT15=
EXTT16=
EXTT17=
EXTT18=
EXTT19=
EXTT20=
EXTT21=
EXTT22=
PLAYORDER=
